<svg xmlns="http://www.w3.org/2000/svg" xmlns:xlink="http://www.w3.org/1999/xlink" width="320" zoomAndPan="magnify" viewBox="0 0 240 239.999995" height="320" preserveAspectRatio="xMidYMid meet" version="1.0"><defs><clipPath id="d2b26a8020"><path d="M 131 61.746094 L 164 61.746094 L 164 78 L 131 78 Z M 131 61.746094 " clip-rule="nonzero"/></clipPath></defs><path fill="#dd4d46" d="M 218.714844 113.21875 C 218.714844 113.21875 219.453125 107.867188 223.703125 108.011719 C 227.953125 108.15625 229.417969 110.699219 228.804688 115.082031 C 228.191406 119.46875 218.714844 116.214844 218.714844 116.214844 Z M 218.714844 113.21875 " fill-opacity="1" fill-rule="nonzero"/><path fill="#655245" d="M 238.308594 119.890625 C 238.308594 119.890625 238.8125 115.488281 233.390625 115.113281 C 227.96875 114.738281 221.167969 115.871094 212.851562 110.085938 C 204.535156 104.296875 199.121094 97.132812 187.773438 101.03125 C 187.773438 101.03125 167.988281 92.730469 159.171875 88.453125 C 150.351562 84.183594 149.972656 98.886719 153.25 105.179688 C 153.25 105.179688 146.570312 103.5625 145.308594 105.941406 C 144.050781 108.320312 145.308594 117.625 151.738281 122.152344 C 151.738281 122.152344 143.675781 122.527344 128.804688 117.878906 C 113.9375 113.226562 99.882812 106.75 83.503906 113.285156 C 83.503906 113.285156 75.25 107.820312 75.878906 97.507812 C 75.878906 97.507812 75.625 93.238281 71.84375 96.125 C 68.0625 99.011719 68.945312 113.226562 73.355469 118.125 C 73.355469 118.125 62.269531 124.289062 62.898438 140.253906 C 62.898438 140.253906 53.953125 141.257812 49.289062 141.257812 C 44.625 141.257812 40.972656 142.515625 39.207031 148.554688 C 37.445312 154.585938 32.78125 162.386719 31.015625 164.519531 C 29.25 166.65625 31.523438 170.933594 35.050781 171.058594 C 35.050781 171.058594 40.71875 174.578125 44.125 171.058594 C 44.125 171.058594 47.523438 172.695312 50.929688 171.433594 C 50.929688 171.433594 57.734375 173.195312 60.382812 167.539062 C 63.027344 161.878906 63.40625 158.234375 63.40625 158.234375 C 63.40625 158.234375 78.648438 161 86.71875 155.847656 C 94.789062 150.695312 95.160156 149.308594 95.160156 149.308594 C 95.160156 149.308594 104.609375 153.082031 116.078125 158.863281 C 127.546875 164.648438 149.972656 167.917969 160.4375 167.414062 C 170.898438 166.910156 178.957031 161.253906 178.957031 161.253906 C 178.957031 161.253906 183.117188 162.761719 190.296875 162.132812 C 197.480469 161.503906 201.890625 159.617188 201.890625 159.617188 C 201.890625 159.617188 195.085938 167.660156 196.21875 171.183594 C 197.355469 174.703125 202.019531 175.332031 202.019531 175.332031 C 202.019531 175.332031 206.300781 177.972656 210.210938 176.210938 C 214.117188 174.449219 215.628906 170.804688 216.890625 164.644531 C 218.15625 158.484375 217.015625 154.710938 217.015625 154.710938 L 222.058594 153.074219 C 222.058594 153.074219 220.292969 158.730469 219.15625 161.117188 C 218.023438 163.507812 218.527344 165.269531 220.164062 166.777344 C 221.804688 168.285156 223.1875 168.03125 223.1875 168.03125 C 223.1875 168.03125 225.457031 169.792969 229.613281 168.535156 C 233.773438 167.28125 236.167969 166.523438 237.300781 158.355469 C 238.4375 150.179688 238.308594 143.894531 233.902344 140.75 C 229.492188 137.605469 221.679688 138.109375 215.128906 138.988281 C 208.574219 139.867188 201.648438 140.625 201.648438 140.625 C 201.648438 140.625 202.277344 135.71875 199.628906 131.449219 C 199.628906 131.449219 205.804688 133.332031 212.480469 132.957031 C 219.164062 132.578125 221.425781 128.929688 221.425781 128.929688 C 221.425781 128.929688 230.503906 130.316406 233.777344 127.046875 C 237.054688 123.777344 238.1875 122.898438 238.3125 119.878906 Z M 238.308594 119.890625 " fill-opacity="1" fill-rule="nonzero"/><path stroke-linecap="round" transform="matrix(0.515907, 0, 0, 0.514766, 0.0515934, 61.959327)" fill="none" stroke-linejoin="round" d="M 202.970727 131.411561 C 202.970727 131.411561 198.420186 158.479407 184.352124 169.70266 " stroke="#1e2f45" stroke-width="2" stroke-opacity="1" stroke-miterlimit="4"/><path stroke-linecap="round" transform="matrix(0.515907, 0, 0, 0.514766, 0.0515934, 61.959327)" fill="none" stroke-linejoin="round" d="M 122.80246 187.042168 L 101.670081 184.902237 C 101.670081 184.902237 97.763127 201.08072 85.428965 211.947318 " stroke="#1e2f45" stroke-width="2" stroke-opacity="1" stroke-miterlimit="4"/><path stroke-linecap="round" transform="matrix(0.515907, 0, 0, 0.514766, 0.0515934, 61.959327)" fill="none" stroke-linejoin="round" d="M 79.136953 201.7485 C 79.136953 201.7485 75.419289 210.596581 67.840102 211.947318 " stroke="#1e2f45" stroke-width="2" stroke-opacity="1" stroke-miterlimit="4"/><path stroke-linecap="round" transform="matrix(0.515907, 0, 0, 0.514766, 0.0515934, 61.959327)" fill="none" stroke-linejoin="round" d="M 103.138974 201.7485 C 103.138974 201.7485 103.078402 209.139607 98.61872 212.683393 " stroke="#1e2f45" stroke-width="2" stroke-opacity="1" stroke-miterlimit="4"/><path stroke-linecap="round" transform="matrix(0.515907, 0, 0, 0.514766, 0.0515934, 61.959327)" fill="none" stroke-linejoin="round" d="M 142.087365 109.116823 C 142.087365 109.116823 151.332308 103.053686 161.750851 99.722376 " stroke="#1e2f45" stroke-width="2" stroke-opacity="1" stroke-miterlimit="4"/><path stroke-linecap="round" transform="matrix(0.515907, 0, 0, 0.514766, 0.0515934, 61.959327)" fill="none" stroke-linejoin="round" d="M 294.019405 116.94047 C 294.019405 116.94047 310.692103 128.482436 335.602719 127.199996 C 360.513334 125.917555 376.269866 103.569698 377.731188 100.268741 " stroke="#1e2f45" stroke-width="2" stroke-opacity="1" stroke-miterlimit="4"/><path stroke-linecap="round" transform="matrix(0.515907, 0, 0, 0.514766, 0.0515934, 61.959327)" fill="none" stroke-linejoin="round" d="M 296.949621 83.961256 C 296.949621 83.961256 315.27293 86.708259 334.497263 83.961256 C 353.729166 81.206665 354.96334 79.55998 363.86756 75.902369 " stroke="#1e2f45" stroke-width="2" stroke-opacity="1" stroke-miterlimit="4"/><path stroke-linecap="round" transform="matrix(0.515907, 0, 0, 0.514766, 0.0515934, 61.959327)" fill="none" stroke-linejoin="round" d="M 390.739224 152.841221 C 390.739224 152.841221 390.012349 159.981911 384.333637 170.059315 C 384.333637 170.059315 395.69106 169.687483 406.306466 169.141117 C 416.929442 168.587164 420.541103 180.189837 420.541103 180.189837 " stroke="#1e2f45" stroke-width="2" stroke-opacity="1" stroke-miterlimit="4"/><path stroke-linecap="round" transform="matrix(0.515907, 0, 0, 0.514766, 0.0515934, 61.959327)" fill="none" stroke-linejoin="round" d="M 430.308487 177.017883 C 430.308487 177.017883 432.693546 171.713587 436.903364 170.059315 " stroke="#1e2f45" stroke-width="2" stroke-opacity="1" stroke-miterlimit="4"/><path stroke-linecap="round" transform="matrix(0.515907, 0, 0, 0.514766, 0.0515934, 61.959327)" fill="none" stroke-linejoin="round" d="M 392.821418 219.64955 C 392.821418 219.64955 400.453607 217.50962 403.74726 202.666697 " stroke="#1e2f45" stroke-width="2" stroke-opacity="1" stroke-miterlimit="4"/><path stroke-linecap="round" transform="matrix(0.515907, 0, 0, 0.514766, 0.0515934, 61.959327)" fill="none" stroke-linejoin="round" d="M 433.609712 205.709648 C 433.609712 205.709648 441.673482 204.313381 443.869251 187.277409 " stroke="#1e2f45" stroke-width="2" stroke-opacity="1" stroke-miterlimit="4"/><path stroke-linecap="round" transform="matrix(0.515907, 0, 0, 0.514766, 0.0515934, 61.959327)" fill="none" stroke-linejoin="round" d="M 389.088612 106.863066 C 389.088612 106.863066 388.361736 96.239298 393.851158 96.049587 C 399.340579 95.859877 400.809473 105.026672 400.809473 105.026672 " stroke="#1e2f45" stroke-width="2" stroke-opacity="1" stroke-miterlimit="4"/><path fill="#1e2f45" d="M 234.808594 125.621094 C 234.808594 125.621094 232.402344 123.96875 231.359375 123.074219 C 230.316406 122.175781 232.824219 121.1875 230.128906 120.429688 C 227.4375 119.675781 226.617188 115.351562 227.664062 114.929688 C 228.710938 114.507812 234.71875 113.203125 237.363281 114.058594 C 240.011719 114.914062 239.402344 118.257812 239.207031 119.652344 C 238.792969 122.597656 236.65625 125.949219 234.808594 125.621094 Z M 234.808594 125.621094 " fill-opacity="1" fill-rule="nonzero"/><path fill="#dd4d46" d="M 215.339844 127.675781 C 215.339844 127.675781 215.054688 129.699219 213.351562 131.871094 C 211.652344 134.042969 211.933594 137.296875 214.34375 139.105469 C 216.753906 140.917969 221.808594 138.894531 224.125 135.359375 C 226.441406 131.824219 227.222656 129.199219 227.222656 129.199219 C 227.222656 129.199219 220.113281 129.332031 215.339844 127.679688 Z M 215.339844 127.675781 " fill-opacity="1" fill-rule="nonzero"/><path stroke-linecap="round" transform="matrix(0.515907, 0, 0, 0.514766, 0.0515934, 61.959327)" fill="none" stroke-linejoin="round" d="M 395.872779 117.668957 C 395.872779 117.668957 407.16963 127.010285 429.089457 130.12912 C 429.089457 130.12912 439.74272 132.337347 449.67668 128.672146 " stroke="#1e2f45" stroke-width="2" stroke-opacity="1" stroke-miterlimit="4"/><path fill="#dd4d46" d="M 222.335938 105.808594 C 222.335938 105.808594 219.78125 107.535156 215.953125 105.414062 C 212.125 103.296875 212.21875 99 209.480469 95.894531 C 206.738281 92.785156 204.046875 92.074219 201.492188 91.222656 C 198.9375 90.375 197.902344 86.132812 200.027344 83.207031 C 202.152344 80.285156 208.71875 79.863281 216.046875 86.132812 C 223.371094 92.402344 224.929688 99.523438 224.882812 101.597656 C 224.835938 103.671875 223.136719 105.441406 222.332031 105.808594 Z M 222.335938 105.808594 " fill-opacity="1" fill-rule="nonzero"/><path fill="#dd4d46" d="M 167.097656 70.417969 C 167.097656 70.417969 168.625 67.746094 173 67.960938 C 177.375 68.175781 179.183594 72.074219 183.019531 73.664062 C 186.851562 75.25 189.585938 74.703125 192.246094 74.34375 C 194.910156 73.984375 197.722656 77.335938 197.101562 80.898438 C 196.484375 84.453125 190.777344 87.726562 181.433594 85.320312 C 172.089844 82.910156 167.546875 77.207031 166.667969 75.324219 C 165.792969 73.4375 166.539062 71.101562 167.097656 70.421875 Z M 167.097656 70.417969 " fill-opacity="1" fill-rule="nonzero"/><path fill="#dd4d46" d="M 34.957031 101.046875 C 34.957031 101.046875 34.144531 98.074219 37.394531 95.144531 C 40.644531 92.21875 44.683594 93.695312 48.515625 92.109375 C 52.355469 90.523438 53.890625 88.210938 55.523438 86.074219 C 57.152344 83.941406 61.511719 84.332031 63.597656 87.28125 C 65.679688 90.234375 63.960938 96.570312 55.652344 101.460938 C 47.339844 106.351562 40.082031 105.523438 38.128906 104.8125 C 36.179688 104.097656 35.050781 101.921875 34.957031 101.046875 Z M 34.957031 101.046875 " fill-opacity="1" fill-rule="nonzero"/><path fill="#dd4d46" d="M 98.6875 76.589844 C 98.6875 76.589844 98.976562 73.527344 103.050781 71.929688 C 107.128906 70.335938 110.382812 73.140625 114.535156 73.015625 C 118.691406 72.894531 120.949219 71.265625 123.230469 69.84375 C 125.511719 68.425781 129.453125 70.324219 130.355469 73.824219 C 131.257812 77.320312 127.402344 82.648438 117.894531 84.285156 C 108.386719 85.925781 101.890625 82.589844 100.316406 81.238281 C 98.746094 79.882812 98.460938 77.445312 98.6875 76.59375 Z M 98.6875 76.589844 " fill-opacity="1" fill-rule="nonzero"/><g clip-path="url(#d2b26a8020)"><path fill="#dd4d46" d="M 163.449219 73.195312 C 163.449219 73.195312 162.578125 76.144531 158.269531 76.933594 C 153.960938 77.722656 151.304688 74.339844 147.207031 73.671875 C 143.113281 73 140.578125 74.160156 138.066406 75.117188 C 135.554688 76.074219 132.050781 73.453125 131.839844 69.851562 C 131.625 66.246094 136.429688 61.757812 146.078125 61.96875 C 155.726562 62.179688 161.457031 66.695312 162.742188 68.328125 C 164.027344 69.957031 163.835938 72.410156 163.449219 73.195312 Z M 163.449219 73.195312 " fill-opacity="1" fill-rule="nonzero"/></g><path fill="#dd4d46" d="M 95.820312 76.152344 C 95.820312 76.152344 95.886719 79.230469 92.015625 81.277344 C 88.148438 83.328125 84.59375 80.914062 80.488281 81.515625 C 76.378906 82.117188 74.316406 83.984375 72.214844 85.660156 C 70.117188 87.332031 65.980469 85.894531 64.679688 82.523438 C 63.378906 79.152344 66.59375 73.421875 75.855469 70.707031 C 85.113281 67.988281 91.945312 70.550781 93.667969 71.71875 C 95.390625 72.886719 95.949219 75.277344 95.820312 76.144531 Z M 95.820312 76.152344 " fill-opacity="1" fill-rule="nonzero"/><path fill="#dd4d46" d="M 32.433594 104.160156 C 32.433594 104.160156 32.503906 107.238281 28.632812 109.285156 C 24.761719 111.335938 21.207031 108.921875 17.101562 109.523438 C 12.996094 110.125 10.933594 111.996094 8.832031 113.667969 C 6.734375 115.339844 2.59375 113.90625 1.296875 110.53125 C -0.00390625 107.160156 3.207031 101.429688 12.46875 98.714844 C 21.730469 95.996094 28.5625 98.558594 30.285156 99.726562 C 32.007812 100.894531 32.5625 103.285156 32.433594 104.15625 Z M 32.433594 104.160156 " fill-opacity="1" fill-rule="nonzero"/><path fill="#dd4d46" d="M 36 101.941406 C 36 102.246094 35.941406 102.539062 35.824219 102.820312 C 35.707031 103.101562 35.542969 103.347656 35.324219 103.566406 C 35.109375 103.78125 34.863281 103.945312 34.578125 104.0625 C 34.296875 104.179688 34.003906 104.238281 33.699219 104.238281 C 33.394531 104.238281 33.101562 104.179688 32.820312 104.0625 C 32.535156 103.945312 32.289062 103.78125 32.070312 103.566406 C 31.855469 103.347656 31.691406 103.101562 31.574219 102.820312 C 31.457031 102.539062 31.398438 102.246094 31.398438 101.941406 C 31.398438 101.636719 31.457031 101.34375 31.574219 101.0625 C 31.691406 100.78125 31.855469 100.53125 32.070312 100.316406 C 32.289062 100.101562 32.535156 99.9375 32.820312 99.820312 C 33.101562 99.703125 33.394531 99.644531 33.699219 99.644531 C 34.003906 99.644531 34.296875 99.703125 34.578125 99.820312 C 34.863281 99.9375 35.109375 100.101562 35.324219 100.316406 C 35.542969 100.53125 35.707031 100.78125 35.824219 101.0625 C 35.941406 101.34375 36 101.636719 36 101.941406 Z M 36 101.941406 " fill-opacity="1" fill-rule="nonzero"/><path fill="#dd4d46" d="M 66.707031 85.398438 C 66.707031 85.699219 66.648438 85.992188 66.53125 86.273438 C 66.414062 86.554688 66.25 86.804688 66.03125 87.019531 C 65.816406 87.234375 65.566406 87.402344 65.285156 87.519531 C 65.003906 87.632812 64.710938 87.691406 64.40625 87.691406 C 64.101562 87.691406 63.808594 87.632812 63.523438 87.519531 C 63.242188 87.402344 62.996094 87.234375 62.777344 87.019531 C 62.5625 86.804688 62.398438 86.554688 62.28125 86.273438 C 62.164062 85.992188 62.105469 85.699219 62.105469 85.398438 C 62.105469 85.09375 62.164062 84.800781 62.28125 84.519531 C 62.398438 84.238281 62.5625 83.988281 62.777344 83.773438 C 62.996094 83.558594 63.242188 83.390625 63.523438 83.277344 C 63.808594 83.160156 64.101562 83.101562 64.40625 83.101562 C 64.710938 83.101562 65.003906 83.160156 65.285156 83.277344 C 65.566406 83.390625 65.816406 83.558594 66.03125 83.773438 C 66.25 83.988281 66.414062 84.238281 66.53125 84.519531 C 66.648438 84.800781 66.707031 85.09375 66.707031 85.398438 Z M 66.707031 85.398438 " fill-opacity="1" fill-rule="nonzero"/><path fill="#dd4d46" d="M 99.761719 76.34375 C 99.761719 76.644531 99.703125 76.9375 99.585938 77.21875 C 99.46875 77.5 99.304688 77.75 99.085938 77.964844 C 98.871094 78.179688 98.621094 78.347656 98.339844 78.464844 C 98.058594 78.578125 97.765625 78.636719 97.460938 78.636719 C 97.15625 78.636719 96.863281 78.578125 96.578125 78.464844 C 96.296875 78.347656 96.046875 78.179688 95.832031 77.964844 C 95.617188 77.75 95.449219 77.5 95.335938 77.21875 C 95.21875 76.9375 95.160156 76.644531 95.160156 76.34375 C 95.160156 76.039062 95.21875 75.746094 95.335938 75.464844 C 95.449219 75.183594 95.617188 74.933594 95.832031 74.71875 C 96.046875 74.503906 96.296875 74.335938 96.578125 74.222656 C 96.863281 74.105469 97.15625 74.046875 97.460938 74.046875 C 97.765625 74.046875 98.058594 74.105469 98.339844 74.222656 C 98.621094 74.335938 98.871094 74.503906 99.085938 74.71875 C 99.304688 74.933594 99.46875 75.183594 99.585938 75.464844 C 99.703125 75.746094 99.761719 76.039062 99.761719 76.34375 Z M 99.761719 76.34375 " fill-opacity="1" fill-rule="nonzero"/><path fill="#dd4d46" d="M 133.351562 72.191406 C 133.351562 72.496094 133.292969 72.789062 133.175781 73.070312 C 133.058594 73.351562 132.894531 73.601562 132.675781 73.816406 C 132.460938 74.03125 132.214844 74.199219 131.929688 74.3125 C 131.648438 74.429688 131.355469 74.488281 131.050781 74.488281 C 130.746094 74.488281 130.453125 74.429688 130.171875 74.3125 C 129.886719 74.199219 129.640625 74.03125 129.421875 73.816406 C 129.207031 73.601562 129.042969 73.351562 128.925781 73.070312 C 128.808594 72.789062 128.75 72.496094 128.75 72.191406 C 128.75 71.886719 128.808594 71.59375 128.925781 71.3125 C 129.042969 71.03125 129.207031 70.785156 129.421875 70.570312 C 129.640625 70.355469 129.886719 70.1875 130.171875 70.070312 C 130.453125 69.957031 130.746094 69.898438 131.050781 69.898438 C 131.355469 69.898438 131.648438 69.957031 131.929688 70.070312 C 132.214844 70.1875 132.460938 70.355469 132.675781 70.570312 C 132.894531 70.785156 133.058594 71.03125 133.175781 71.3125 C 133.292969 71.59375 133.351562 71.886719 133.351562 72.191406 Z M 133.351562 72.191406 " fill-opacity="1" fill-rule="nonzero"/><path fill="#dd4d46" d="M 224.890625 106.472656 C 224.890625 106.777344 224.832031 107.070312 224.714844 107.351562 C 224.597656 107.632812 224.429688 107.878906 224.214844 108.09375 C 224 108.308594 223.75 108.476562 223.46875 108.59375 C 223.1875 108.707031 222.894531 108.765625 222.589844 108.765625 C 222.28125 108.765625 221.988281 108.707031 221.707031 108.59375 C 221.425781 108.476562 221.175781 108.308594 220.960938 108.09375 C 220.746094 107.878906 220.578125 107.632812 220.460938 107.351562 C 220.34375 107.070312 220.289062 106.777344 220.289062 106.472656 C 220.289062 106.167969 220.34375 105.875 220.460938 105.59375 C 220.578125 105.3125 220.746094 105.0625 220.960938 104.847656 C 221.175781 104.632812 221.425781 104.464844 221.707031 104.351562 C 221.988281 104.234375 222.28125 104.175781 222.589844 104.175781 C 222.894531 104.175781 223.1875 104.234375 223.46875 104.351562 C 223.75 104.464844 224 104.632812 224.214844 104.847656 C 224.429688 105.0625 224.597656 105.3125 224.714844 105.59375 C 224.832031 105.875 224.890625 106.167969 224.890625 106.472656 Z M 224.890625 106.472656 " fill-opacity="1" fill-rule="nonzero"/><path fill="#dd4d46" d="M 200.769531 82.429688 C 200.769531 82.734375 200.710938 83.027344 200.59375 83.308594 C 200.476562 83.589844 200.3125 83.839844 200.097656 84.054688 C 199.878906 84.269531 199.632812 84.4375 199.351562 84.550781 C 199.066406 84.667969 198.773438 84.726562 198.46875 84.726562 C 198.164062 84.726562 197.871094 84.667969 197.589844 84.550781 C 197.308594 84.4375 197.058594 84.269531 196.84375 84.054688 C 196.625 83.839844 196.460938 83.589844 196.34375 83.308594 C 196.226562 83.027344 196.167969 82.734375 196.167969 82.429688 C 196.167969 82.128906 196.226562 81.835938 196.34375 81.554688 C 196.460938 81.273438 196.625 81.023438 196.84375 80.808594 C 197.058594 80.59375 197.308594 80.425781 197.589844 80.308594 C 197.871094 80.195312 198.164062 80.136719 198.46875 80.136719 C 198.773438 80.136719 199.066406 80.195312 199.351562 80.308594 C 199.632812 80.425781 199.878906 80.59375 200.097656 80.808594 C 200.3125 81.023438 200.476562 81.273438 200.59375 81.554688 C 200.710938 81.835938 200.769531 82.128906 200.769531 82.429688 Z M 200.769531 82.429688 " fill-opacity="1" fill-rule="nonzero"/><path fill="#dd4d46" d="M 167.5 72.191406 C 167.5 72.496094 167.441406 72.789062 167.324219 73.070312 C 167.207031 73.351562 167.042969 73.601562 166.824219 73.816406 C 166.609375 74.03125 166.359375 74.199219 166.078125 74.3125 C 165.796875 74.429688 165.503906 74.488281 165.199219 74.488281 C 164.894531 74.488281 164.601562 74.429688 164.316406 74.3125 C 164.035156 74.199219 163.789062 74.03125 163.570312 73.816406 C 163.355469 73.601562 163.191406 73.351562 163.074219 73.070312 C 162.957031 72.789062 162.898438 72.496094 162.898438 72.191406 C 162.898438 71.886719 162.957031 71.59375 163.074219 71.3125 C 163.191406 71.03125 163.355469 70.785156 163.570312 70.570312 C 163.789062 70.355469 164.035156 70.1875 164.316406 70.070312 C 164.601562 69.957031 164.894531 69.898438 165.199219 69.898438 C 165.503906 69.898438 165.796875 69.957031 166.078125 70.070312 C 166.359375 70.1875 166.609375 70.355469 166.824219 70.570312 C 167.042969 70.785156 167.207031 71.03125 167.324219 71.3125 C 167.441406 71.59375 167.5 71.886719 167.5 72.191406 Z M 167.5 72.191406 " fill-opacity="1" fill-rule="nonzero"/><path fill="#dd4d46" d="M 4.023438 112.25 C 4.023438 112.25 3.648438 112.910156 3.550781 114.371094 C 3.453125 115.835938 2.605469 115.078125 2.652344 114.371094 L 2.699219 113.667969 C 2.699219 113.667969 1.609375 115.175781 1.023438 114.707031 C 0.433594 114.238281 1.425781 113.054688 1.425781 113.054688 C 1.425781 113.054688 0.101562 113.054688 0.0507812 112.25 C 0 111.449219 2.554688 111.546875 2.699219 111.59375 C 2.84375 111.640625 4.019531 112.25 4.019531 112.25 Z M 4.023438 112.25 " fill-opacity="1" fill-rule="nonzero"/><path fill="#dd4d46" d="M 216.242188 138.648438 C 216.242188 138.648438 216.144531 139.175781 216.046875 140.636719 C 215.949219 142.097656 215.144531 141.648438 214.984375 140.894531 C 214.835938 140.199219 214.917969 140.058594 214.917969 140.058594 C 214.917969 140.058594 213.828125 141.566406 213.238281 141.097656 C 212.652344 140.632812 213.640625 139.445312 213.640625 139.445312 C 213.640625 139.445312 212.320312 139.445312 212.269531 138.644531 C 212.21875 137.839844 214.773438 137.9375 214.917969 137.984375 C 215.0625 138.03125 216.238281 138.644531 216.238281 138.644531 Z M 216.242188 138.648438 " fill-opacity="1" fill-rule="nonzero"/><path stroke-linecap="round" transform="matrix(0.515907, 0, 0, 0.514766, 0.0515934, 61.959327)" fill="none" stroke-linejoin="round" d="M 320.111193 173.542393 C 320.111193 173.542393 327.069508 185.486545 345.96826 192.323699 " stroke="#1e2f45" stroke-width="2" stroke-opacity="1" stroke-miterlimit="4"/></svg>